Poster: 
http://imgr.us/images/ovshq9n1kzeahnu70cup.jpg

Info:

Format : AVI
Format/Info : Audio Video Interleave
File size : 640 MiB
Duration : 2h 18mn
Overall bit rate : 646 Kbps
Writing application : VirtualDubMod 1.5.10.2 (build 2540/release)
Writing library : VirtualDubMod build 2540/release

Video
ID : 0
Format : MPEG-4 Visual
Format profile : Advanced Simple@L5
Format settings, BVOP : 2
Format settings, QPel : Yes
Format settings, GMC : No warppoints
Format settings, Matrix : Default (H.263)
Muxing mode : Packed bitstream
Codec ID : XVID
Codec ID/Hint : XviD
Duration : 2h 18mn
Bit rate : 509 Kbps
Width : 720 pixels
Height : 304 pixels
Display aspect ratio : 2.35:1
Frame rate : 25.000 fps
Color space : YUV
Chroma subsampling : 4:2:0
Bit depth : 8 bits
Scan type : Progressive
Compression mode : Lossy
Bits/(Pixel*Frame) : 0.093
Stream size : 504 MiB (79%)
Writing library : XviD 64

Audio
ID : 1
Format : MPEG Audio
Format version : Version 1
Format profile : Layer 3
Codec ID : 55
Codec ID/Hint : MP3
Duration : 2h 18mn
Bit rate mode : Constant
Bit rate : 128 Kbps
Channel(s) : 2 channels
Sampling rate : 44.1 KHz
Compression mode : Lossy
Stream size : 127 MiB (20%)
Alignment : Split accross interleaves
Interleave, duration : 40 ms (1.00 video frame)
Interleave, preload duration : 500 ms



Release Notes

Right here we have a better source of Skyfall,done usual stuff Cropped and filtered (including a small box BLur top left throughout) and rezied to proper AR.
Firsty onto Video not the best but not the worst,ITS A CAM!,yes there will be a few flickery parts on the movie but theres not many.

This is Subbed throughout the video!!!!

Audio is good ocasional cough or laugh nothing mayjor,Audio loss for one minute @ 1:20:21 to 1:21:37 nothing mayjor missed there either.Synced this best i could,slips in an out now and again ,again nothing major.

Thanks for having a look my first cam effort Take it or leave it ITS A CAM,


Screens:
 
http://imgr.us/images/1rwxj0varmknqfrh9izj.png 
http://imgr.us/images/4ova9oog7tpqwlzdkezo.png 
http://imgr.us/images/uxt0g8tcsw270ql7as2n.png 
http://imgr.us/images/v1zezip6vbidbhlpep.png 
http://imgr.us/images/6dtianbqh77axz7cgnd.png 
http://imgr.us/images/o1yer7qk39f90kp5umsj.png